<svg width="34" height="34" viewBox="0 0 34 34" fill="none" xmlns="http://www.w3.org/2000/svg">
<g clip-path="url(#clip0_2316_74)">
<path d="M16.67 13.4199C14.92 13.4199 13.5 14.8399 13.5 16.5899C13.5 18.3399 14.92 19.7599 16.67 19.7599C18.42 19.7599 19.84 18.3399 19.84 16.5899C19.84 14.8399 18.42 13.4199 16.67 13.4199Z" fill="white"/>
<path d="M20.6 8.41992H12.57C10.28 8.41992 8.42 10.2799 8.42 12.5699V20.5999C8.42 22.8899 10.28 24.7499 12.57 24.7499H20.6C22.89 24.7499 24.75 22.8899 24.75 20.5999V12.5699C24.75 10.2799 22.89 8.41992 20.6 8.41992ZM16.67 21.5399C13.94 21.5399 11.72 19.3199 11.72 16.5899C11.72 13.8599 13.94 11.6399 16.67 11.6399C19.4 11.6399 21.62 13.8599 21.62 16.5899C21.62 19.3199 19.4 21.5399 16.67 21.5399ZM21.91 12.4799C21.26 12.4799 20.73 11.9499 20.73 11.2999C20.73 10.6499 21.26 10.1199 21.91 10.1199C22.56 10.1199 23.09 10.6499 23.09 11.2999C23.09 11.9499 22.56 12.4799 21.91 12.4799Z" fill="white"/>
<path d="M16.59 0C7.43 0 0 7.43 0 16.59C0 25.75 7.43 33.18 16.59 33.18C25.75 33.18 33.18 25.75 33.18 16.59C33.18 7.43 25.75 0 16.59 0ZM26.64 20.6C26.64 23.93 23.93 26.64 20.6 26.64H12.57C9.24 26.64 6.53 23.93 6.53 20.6V12.57C6.53 9.24 9.24 6.53 12.57 6.53H20.6C23.93 6.53 26.64 9.24 26.64 12.57V20.6Z" fill="white"/>
</g>
<defs>
<clipPath id="clip0_2316_74">
<rect width="33.18" height="33.18" fill="white"/>
</clipPath>
</defs>
</svg>
