<svg width="34" height="34" viewBox="0 0 34 34" fill="none" xmlns="http://www.w3.org/2000/svg">
<g clip-path="url(#clip0_2316_63)">
<path d="M22.9036 31.9343C31.3759 28.4458 35.416 18.7496 31.9274 10.2773C28.4389 1.805 18.7427 -2.2351 10.2704 1.25347C1.79813 4.74203 -2.24197 14.4382 1.2466 22.9105C4.73516 31.3828 14.4313 35.4229 22.9036 31.9343Z" fill="white"/>
<path d="M8.24001 12.69H11.82V24.19H8.24001V12.69ZM10.03 6.97998C11.18 6.97998 12.1 7.90998 12.1 9.04998C12.1 10.19 11.17 11.12 10.03 11.12C8.89001 11.12 7.95001 10.19 7.95001 9.04998C7.95001 7.90998 8.88001 6.97998 10.03 6.97998Z" fill="#252323"/>
<path d="M14.07 12.6899H17.5V14.2599H17.55C18.03 13.3499 19.19 12.3999 20.94 12.3999C24.56 12.3999 25.23 14.7799 25.23 17.8799V24.1899H21.66V18.5999C21.66 17.2599 21.63 15.5499 19.8 15.5499C17.97 15.5499 17.65 16.9999 17.65 18.4999V24.1899H14.08V12.6899H14.07Z" fill="#252323"/>
</g>
<defs>
<clipPath id="clip0_2316_63">
<rect width="33.18" height="33.18" fill="white"/>
</clipPath>
</defs>
</svg>
