<svg width="83" height="27" viewBox="0 0 83 27" fill="none" xmlns="http://www.w3.org/2000/svg">
<path d="M42.7967 6.88529H40.3323L38.9411 9.13997H41.4055L42.7967 6.88529ZM49.1963 12.82C47.9044 12.9292 45.6189 14.0814 44.3767 16.6092C43.1346 19.1321 43.1296 20.6915 43.1296 20.6915C43.1296 20.6915 43.7855 19.9714 44.7891 19.2215C45.7928 18.4666 46.543 18.2034 46.543 18.2034C46.543 18.2034 46.7318 17.2747 47.1939 16.3063C47.6461 15.3627 48.3615 14.3794 49.2509 14.1609C51.0496 13.7089 50.185 16.9867 48.8684 19.1271C48.1579 20.2744 45.6437 23.5769 43.4774 23.5769C41.3111 23.5769 40.8938 21.4911 41.3509 19.5393C41.808 17.5876 42.439 15.1094 45.599 10.6001C48.759 6.09565 52.1824 3.4238 54.1599 2.30142C56.1921 1.14924 57.0218 1.6558 57.0218 1.6558C57.0218 1.6558 54.4232 3.25494 52.9476 5.17689C51.5365 7.01441 50.6918 9.08535 51.3477 10.0985C51.9737 11.0619 54.1698 11.0818 56.5945 7.58553C58.9844 4.13397 58.3832 2.0829 58.3832 2.0829C58.3832 2.0829 58.6714 1.98854 58.8652 1.96371C60.0328 1.80976 60.9669 2.11766 62.4127 2.85764C63.9282 3.63238 65.379 4.87891 67.3714 5.90197C67.9726 5.24642 68.6384 4.54617 69.339 3.86579C66.6559 2.55966 64.6138 0.69731 61.9805 0.518525C59.6899 0.36457 57.8814 1.19891 57.8814 1.19891C57.8814 1.19891 57.1808 0.245381 55.0244 0.558256C52.8681 0.871131 46.2201 3.64728 40.5708 12.6958C35.4581 20.8802 37.8679 25.5684 41.5397 25.5138C45.5245 25.4542 49.3106 21.0292 50.5924 17.3741C51.8743 13.7238 50.3589 12.7356 49.1913 12.8299L49.1963 12.82ZM57.0119 5.21662C56.3411 6.84555 55.3573 7.9878 54.3885 8.8569C53.1463 9.97431 52.4606 9.93458 52.1675 9.7111C51.3974 9.12508 52.4308 6.91012 54.2295 4.92858C56.0182 2.95697 57.5584 2.34115 57.5584 2.34115C57.5584 2.36598 57.8168 3.25991 57.0119 5.21662ZM79.1967 2.83778C77.3732 4.00982 74.8491 5.0726 72.4195 4.83918C71.8084 5.47487 71.1475 6.20988 70.4867 7.00945C74.6951 7.83881 78.3769 5.23152 80.3395 3.0116C81.5617 1.62601 82.1679 0.389404 82.1679 0.389404C82.1679 0.389404 81.0003 1.67567 79.1967 2.83778Z" fill="white"/>
<path d="M77.2043 13.1179H74.6107L74.1883 13.7685C74.1883 13.7685 73.6616 12.8149 72.7623 12.8298C71.227 12.8547 69.6917 14.0267 67.9031 16.0579C66.5963 17.5478 64.425 20.8603 64.425 20.8603C64.425 20.8603 62.7605 23.4229 61.9208 23.2243C60.4849 22.8816 63.1233 17.5726 63.1233 17.5726C63.1233 17.5726 64.5095 16.7135 66.3081 15.2037C67.441 14.2502 68.7427 12.9441 69.9402 11.7273C71.0283 10.6248 72.3151 9.12501 73.5325 7.48117C73.2194 7.53083 72.9015 7.5656 72.5735 7.58049C71.4804 9.02071 70.3128 10.3119 69.3191 11.34C67.8385 12.8696 66.482 14.1161 65.4933 14.9157C64.5443 15.6805 63.9381 16.0232 63.9381 16.0232C63.9381 16.0232 65.7467 12.3134 68.7576 8.21618C71.7686 4.119 75.987 0.309872 75.6541 2.11759C75.5597 2.63409 75.2367 3.37903 74.7498 4.26302C75.0926 4.1935 75.4255 4.1041 75.7485 3.99981C76.4739 2.50496 76.7223 1.26836 76.1807 0.910791C73.9697 -0.544327 68.3502 5.4748 65.533 8.97105C62.7158 12.4673 60.1669 17.811 60.1669 17.811C60.1669 17.811 59.7247 17.9948 59.2378 18.0891C58.9298 18.1487 58.8006 18.1338 58.7509 18.114C58.726 18.104 58.7211 18.0842 58.7211 18.0842C58.7211 18.0842 61.2004 13.4506 58.6614 12.8398C56.2119 12.2488 51.9687 16.7731 50.4633 19.9266C49.4298 22.087 48.8435 24.8085 50.6173 25.4541C52.5401 26.1544 55.8045 22.6482 56.5746 21.6301C57.3448 20.612 58.2987 18.9135 58.2987 18.9135C58.2987 18.9135 58.7658 18.8887 59.0242 18.849C59.5161 18.7745 59.7446 18.7149 59.7446 18.7149C59.7446 18.7149 59.4266 19.5492 59.0838 20.6021C58.4428 22.5687 57.8665 25.3846 60.1719 25.5137C61.6426 25.5981 63.799 22.9412 63.799 22.9412C63.799 22.9412 63.2177 25.3002 65.1256 25.5137C66.5367 25.6677 68.5838 23.4924 68.5838 23.4924C68.5838 23.4924 68.1366 25.3647 69.5675 25.5336C70.7898 25.6726 72.5238 24.2423 73.9498 22.668C75.505 20.9447 76.6975 19.0625 76.6975 19.0625H75.7932C75.7932 19.0625 73.7958 22.0969 72.3897 22.9064C71.237 23.5719 71.6295 22.5041 71.9823 21.943C72.3698 21.3271 77.2043 13.1129 77.2043 13.1129V13.1179ZM57.4392 18.8341C57.4044 18.9135 56.7535 20.0458 56.0579 20.9298C55.3076 21.8883 53.9413 23.3285 53.1165 23.0206C51.8296 22.5439 53.2457 19.7429 54.1698 18.3821C55.094 17.0214 55.2033 16.932 55.2282 16.8972C55.253 16.8625 55.2778 16.8277 55.3027 16.8724C55.3275 16.9171 55.6207 17.4733 56.202 17.96C56.7883 18.4467 57.3497 18.7049 57.3945 18.7198C57.4392 18.7347 57.474 18.7546 57.4342 18.8341H57.4392ZM58.0205 17.8209C57.941 17.955 57.8814 17.965 57.7125 17.9203C57.4143 17.8408 56.1821 17.2697 56.1921 16.0083C56.202 14.7766 57.9361 13.5748 58.6167 14.0863C59.2527 14.568 58.9496 15.7947 58.7112 16.4205C58.4727 17.0462 58.0752 17.7316 58.0255 17.8209H58.0205ZM69.801 20.8653C69.4582 21.3371 69.17 21.7592 68.9117 22.0572C68.3602 22.6929 67.9975 22.9908 67.6795 23.0703C67.5155 23.11 67.3168 23.1001 67.1826 23.0206C66.7106 22.7326 67.0435 21.6152 67.8633 20.1154C68.6136 18.7447 69.4831 17.369 70.909 15.7897C72.34 14.2055 72.8865 14.126 73.289 14.1459C73.6269 14.1608 73.6766 14.5134 73.6766 14.5134C73.6766 14.5134 73.6517 14.5978 73.5971 14.6872C73.125 15.5067 70.7451 19.574 69.801 20.8653ZM31.5428 22.8518C29.9678 21.8784 27.9505 21.2576 25.6352 21.2377C19.6629 21.1881 13.159 24.0834 8.75683 24.1231C3.56465 24.1678 3.30131 20.175 3.68886 17.9799C4.51861 13.252 7.87242 8.74757 10.0288 6.36872C12.1852 3.98988 14.4459 2.14739 16.324 1.6756C18.2022 1.2038 18.0282 2.63409 17.7947 2.82777C17.5562 2.82777 17.1041 2.8824 16.8457 3.06119C16.4433 3.3393 15.9017 3.85083 15.8669 4.66033C15.8073 5.90686 17.4221 6.12538 18.5897 3.51312C19.3847 1.73022 18.1226 0.523423 17.0743 0.404233C15.6383 0.245312 13.4422 0.741939 10.8188 2.42551C6.25764 5.35561 0.15619 11.8614 0.00216349 19.0774C-0.0872713 23.1945 2.6057 25.5137 6.29737 25.5137C9.98904 25.5137 15.0024 23.254 19.8965 23.1945C22.9273 23.1696 24.8899 24.2324 25.8836 25.9607C25.8836 25.9607 26.8723 24.3168 29.0685 24.2324C31.2447 24.143 33.6396 24.7539 35.6022 26.1345C34.9463 25.1859 33.093 23.8003 31.5428 22.8418V22.8518Z" fill="white"/>
<path d="M17.9387 6.63197C15.4346 5.99629 11.2758 10.2524 9.52687 13.7188C8.44868 15.8593 7.97172 18.5461 9.89457 19.2463C11.8174 19.9465 15.0818 16.4404 15.8519 15.4223C16.622 14.4042 17.8741 12.3581 17.8741 12.3581C17.8741 12.3581 18.2617 12.2836 18.5101 12.224C18.7585 12.1644 19.1709 12.0502 19.1709 12.0502C19.1709 12.0502 18.6989 12.8944 18.2716 13.7586C17.7648 14.7816 16.3885 18.1935 19.0467 19.2165C21.5857 20.1949 25.1979 16.1175 25.3867 16.0431C25.3867 16.0431 24.3134 18.8192 25.9829 19.2463C27.8163 19.7131 29.8236 17.369 29.8236 17.369C29.8236 17.369 29.4013 19.1321 30.8273 19.296C33.3861 19.5939 37.9125 13.0534 37.9125 13.0534H37.0082C37.0082 13.0534 34.7077 16.0133 33.5997 16.6291C32.4917 17.2399 32.8892 16.1523 33.1923 15.6656C33.5749 15.0448 38.469 6.87531 38.469 6.87531H35.8754L35.5723 7.35208C35.5723 7.35208 35.0357 6.53761 34.1463 6.59224C31.5477 6.76109 28.4523 10.903 27.0909 12.7305C25.7295 14.5581 22.798 18.0445 21.2528 17.4187C19.5684 16.7433 21.2428 13.6294 22.3508 11.8068C23.5582 9.82031 25.6947 7.8487 26.5394 7.8338C27.5778 7.81394 27.1704 8.75753 27.1704 8.75753C27.1704 8.75753 26.3953 8.65821 25.8288 9.36839C25.4314 9.86998 25.0985 10.6 25.4811 10.9973C26.0922 11.6429 26.8921 10.9874 27.3642 10.2573C28.8498 7.98776 27.7617 6.79089 26.599 6.61707C24.1147 6.2446 21.8291 9.43294 20.0901 10.6199C18.8827 11.4393 18.3809 11.3797 18.3809 11.3797C18.3809 11.3797 20.4727 7.27758 17.9437 6.63197H17.9387ZM29.1826 13.9721C29.9329 12.6014 30.9564 11.2754 32.288 9.6167C33.6196 7.95796 34.2804 7.82387 34.6829 7.83877C35.0208 7.85367 35.0705 8.20627 35.0705 8.20627C35.0705 8.20627 32.1787 13.2421 31.1304 14.6823C30.7875 15.1541 30.4944 15.5514 30.236 15.8494C29.6845 16.485 29.282 16.793 28.974 16.8724C28.81 16.9122 28.6113 16.9022 28.4771 16.8228C28.0051 16.5347 28.3628 15.4769 29.1876 13.9771L29.1826 13.9721ZM16.9053 12.3382C16.8705 12.4177 16.0457 13.7834 15.3501 14.6724C14.5998 15.6309 13.2186 17.076 12.3987 16.7681C11.1119 16.2914 12.4832 13.5103 13.4123 12.1495C14.3365 10.7887 14.4756 10.6149 14.5004 10.5802C14.5253 10.5454 14.5501 10.5106 14.575 10.5553C14.5998 10.5951 14.893 11.2009 15.5289 11.6082C16.1649 12.0154 16.8208 12.2041 16.8655 12.219C16.9102 12.2339 16.945 12.2538 16.9053 12.3332V12.3382ZM17.9834 10.2126C17.7449 10.8384 17.5313 11.2357 17.4866 11.3251C17.417 11.4741 17.2381 11.4244 17.2381 11.4244C17.0344 11.4145 15.4594 11.0569 15.4693 9.79548C15.4793 8.56385 17.2133 7.36201 17.894 7.87353C18.53 8.35526 18.2269 9.58194 17.9884 10.2077L17.9834 10.2126ZM75.2515 24.0239C75.1025 23.9394 74.9335 23.8947 74.7447 23.8947C74.5559 23.8947 74.392 23.9394 74.2379 24.0239C74.0889 24.1083 73.9696 24.2275 73.8802 24.3765C73.7957 24.5254 73.751 24.6844 73.751 24.8582C73.751 25.032 73.7957 25.1959 73.8802 25.3399C73.9646 25.4839 74.0839 25.6031 74.2379 25.6876C74.387 25.772 74.5559 25.8167 74.7447 25.8167C74.9335 25.8167 75.0975 25.772 75.2515 25.6876C75.4055 25.6031 75.5198 25.4839 75.6092 25.3399C75.6937 25.1959 75.7384 25.032 75.7384 24.8582C75.7384 24.6844 75.6937 24.5254 75.6092 24.3765C75.5248 24.2275 75.4055 24.1132 75.2515 24.0239ZM75.4304 25.2505C75.3658 25.3697 75.2714 25.4591 75.1521 25.5286C75.0329 25.5932 74.8987 25.628 74.7447 25.628C74.5907 25.628 74.4565 25.5932 74.3373 25.5286C74.218 25.4641 74.1286 25.3697 74.059 25.2505C73.9944 25.1313 73.9597 25.0022 73.9597 24.8532C73.9597 24.7042 73.9944 24.5751 74.059 24.4609C74.1236 24.3467 74.218 24.2523 74.3373 24.1828C74.4565 24.1132 74.5907 24.0834 74.7397 24.0834C74.8888 24.0834 75.0229 24.1182 75.1422 24.1828C75.2614 24.2473 75.3559 24.3417 75.4205 24.4609C75.485 24.5801 75.5198 24.7092 75.5198 24.8532C75.5198 24.9972 75.485 25.1313 75.4205 25.2505H75.4304Z" fill="white"/>
<path d="M75.1175 24.8382C75.1473 24.7935 75.1573 24.7389 75.1573 24.6843C75.1573 24.6048 75.1324 24.5403 75.0827 24.4906C75.033 24.4409 74.9635 24.4111 74.879 24.4111H74.3772V25.2802H74.6008V24.9624H74.7697L74.9734 25.2802H75.2268L74.9983 24.9425C75.048 24.9177 75.0877 24.8829 75.1175 24.8382ZM74.9088 24.7488C74.9088 24.7488 74.8691 24.7737 74.8442 24.7737H74.6058V24.6048H74.8442C74.8741 24.6048 74.8939 24.6148 74.9088 24.6296C74.9237 24.6445 74.9337 24.6644 74.9337 24.6892C74.9337 24.7141 74.9237 24.7339 74.9088 24.7488Z" fill="white"/>
</svg>
