<svg width="81" height="35" viewBox="0 0 81 35" fill="none" xmlns="http://www.w3.org/2000/svg">
<path d="M40.7574 4.55028C41.3069 4.57484 41.8367 4.78608 42.2526 5.1447C42.8219 5.68016 42.9704 6.56933 42.6981 7.28165C41.6535 9.4137 39.1682 10.8432 37.47 11.3148C36.4551 11.5506 35.1679 11.5507 34.242 11.1969C33.7915 11.4622 33.4152 12.3268 32.8657 11.9682C32.0736 11.3541 32.7568 10.3913 32.3013 9.70844C32.2072 9.56598 31.9696 9.55616 31.8508 9.33018C31.222 7.96449 31.9993 6.66267 32.8657 5.62612C34.3113 4.02955 38.4552 2.2463 40.7524 4.5601L40.7574 4.55028ZM35.9451 5.62121C35.1381 5.76859 34.2272 6.11738 33.7321 6.68723C33.237 7.25709 32.9251 7.81221 33.2222 8.40662C34.2668 7.63536 34.7767 6.56933 35.9402 5.91597C35.9402 5.79806 36.1184 5.70964 35.9402 5.62121H35.9451ZM40.8168 5.91597C38.7572 5.73911 37.2027 7.28165 35.7372 8.76032C35.6481 8.99613 35.1084 9.26632 35.5293 9.5316C37.4997 9.70845 39.386 9.14842 40.8168 7.84168C41.2376 7.4585 41.5347 6.95251 41.3267 6.41704C41.2376 6.21072 41.0247 6.00439 40.8168 5.91597ZM58.6796 14.7487C59.6351 17.0625 60.4421 20.7076 58.6796 22.933C58.1993 23.4685 57.3676 23.9597 56.8279 23.5569C54.8575 21.9849 54.0208 19.7349 52.793 17.7159C52.6147 17.6275 52.6147 17.8633 52.5256 17.9517C52.08 19.9953 52.9118 22.6677 51.5107 24.2643C50.9711 24.3527 50.471 24.0776 50.2878 23.552C49.5997 21.4494 50.3175 19.2535 50.4958 17.1509C50.9166 16.0849 51.0948 14.8371 52.0206 14.0364C53.5158 14.6308 54.2337 16.2913 55.0951 17.5047C55.7239 18.4233 56.2289 19.4598 56.9468 20.2901C57.5755 20.0248 57.2636 19.2093 57.2438 18.7181C57.0062 16.7923 56.4665 15.014 55.9566 13.1767C55.9269 12.7002 55.6595 11.8994 56.1645 11.6047C57.5112 12.1991 58.0756 13.5894 58.6746 14.7487H58.6796ZM49.6591 14.0364C49.6591 14.4834 49.3026 15.0386 49.0006 15.1024C46.134 15.5445 42.9358 15.2793 40.2475 16.1684C40.1583 16.4927 40.5445 16.5516 40.7574 16.645C43.0595 16.9987 45.4756 17.0871 47.7183 17.652C48.9016 17.9517 49.3323 19.3419 49.4214 20.4964C49.4759 21.4101 49.1244 22.5105 48.2283 23.1344C46.0202 24.5296 42.6437 24.4657 40.4009 23.1934C39.5444 22.7169 38.7275 21.9505 38.6681 20.9975C38.6731 20.2458 38.9949 19.6514 39.5345 19.3665C41.6882 18.5068 44.3468 18.9833 46.1984 20.0788C46.3172 20.6732 45.6687 20.6389 45.3617 20.8501C43.3021 22.034 41.7476 19.5188 39.8365 20.4325C39.5692 20.6094 39.3711 21.1055 39.688 21.2627C42.0496 22.2993 44.6785 21.5575 47.0054 20.909C47.2727 20.8206 47.6045 20.5553 47.6342 20.2852C47.545 19.337 46.4707 19.1307 45.7825 18.8605C43.7527 18.3545 41.5099 18.3545 39.3315 18.1482C38.9157 18.0598 38.381 17.7699 38.2572 17.4359C38.0196 16.7236 38.0196 15.746 38.5543 15.1515C41.3317 12.7198 45.5449 12.9262 49.0699 13.5795C49.3076 13.668 49.5799 13.7564 49.669 14.0217L49.6591 14.0364ZM36.6036 15.1663C36.871 18.0106 37.0195 20.6487 36.9601 23.6453C36.9007 24.0285 36.4501 24.1218 36.1531 24.2692C35.6728 24.3577 35.0589 24.2594 34.8658 24.0039C34.1777 22.9084 34.4203 21.4249 34.3559 20.0886C34.445 17.9861 34.4153 15.7018 35.0144 13.7466C35.1282 13.4616 35.46 13.2111 35.7323 13.3929C36.4501 13.7466 36.5689 14.4589 36.5987 15.1712L36.6036 15.1663ZM69.7943 14.7487C69.9379 14.9894 70.0864 15.3579 69.7943 15.52C68.4476 16.1144 66.6257 15.8442 65.0761 16.026C64.6602 16.3797 64.3285 16.9741 64.477 17.5096C64.6256 17.598 64.7592 17.7355 64.9276 17.7159C65.8831 17.7748 67.3188 17.2738 67.9476 18.158C68.1011 18.4233 67.9278 19.4107 67.502 19.4353C66.3386 19.5827 64.4176 19.2879 63.8582 19.5827C63.1403 20.0592 63.1997 20.9778 62.9324 21.7196C63.4423 22.0438 63.972 21.7098 64.5761 21.6312C65.6801 21.4543 66.9079 21.1252 68.012 21.3659C68.2199 21.7491 68.5219 22.1667 68.309 22.6432C66.4277 24.1268 63.9968 25.6447 61.4075 24.5689C60.4371 24.1366 60.0014 22.6726 60.3332 21.4249C60.5411 20.5357 61.4669 19.676 60.9025 18.7279C60.8134 18.3103 61.051 17.9566 61.4124 17.8682C62.3977 17.8682 62.1897 16.6548 62.6947 16.0898C62.1254 15.4659 60.6946 15.4954 60.8431 14.2526C61.5313 13.8988 62.368 14.0167 63.1453 13.8988C64.9078 13.5451 66.8782 13.3339 68.6754 13.5451C69.0319 13.6188 69.5121 14.3164 69.8091 14.7585L69.7943 14.7487ZM27.1326 7.98906C29.8902 10.2243 33.4648 14.0364 33.0192 18.4233C32.4795 21.8915 28.7763 24.5001 25.6374 25.3303C22.5877 26.2195 18.7656 26.1311 15.6564 25.4188C15.4485 25.9837 15.2406 26.6616 14.5821 26.9023C14.1662 27.0497 13.6266 26.9613 13.2949 26.696C12.3691 25.8363 13.1166 24.1759 11.77 23.6453C9.14109 22.5498 6.30424 20.3834 4.9576 17.7159C4.77937 17.1804 4.98731 16.6499 5.31407 16.2323C7.37363 14.6013 9.97284 13.948 12.5721 13.4469C12.7206 13.5058 12.6612 13.2995 12.78 13.2406C12.9285 11.4622 12.9879 9.65441 13.5573 8.05292C13.686 7.82694 14.0029 7.75817 14.2157 7.90554C15.8594 9.14842 15.0821 11.4917 15.8 13.1816C18.9389 13.329 22.0728 13.4764 24.5532 15.2252C25.3899 15.9081 25.5929 17.2099 25.3305 17.9517C25.0681 18.6935 24.1967 19.229 23.3897 19.283C22.8501 19.283 21.8351 19.337 21.8946 18.9293C21.954 18.5215 23.7214 17.8534 23.1818 17.2983C22.3995 16.4976 18.4983 16.0211 16.0773 15.7263C15.7802 15.6674 15.503 15.7558 15.503 16.08C15.4436 18.3349 15.2653 20.8206 15.6515 22.9871C15.6812 23.1344 15.8594 23.3113 16.008 23.3408C20.2806 24.0236 24.7908 23.6355 28.1376 21.2087C29.6922 19.9658 30.1972 18.2121 29.9298 16.2863C28.5832 10.9218 22.9392 7.68939 18.3101 5.61139C13.7999 3.65619 8.80939 2.64912 3.46244 2.9144C2.61089 2.97827 1.2593 3.2681 1.2494 3.56777C1.2395 3.86743 2.77922 3.77409 2.59108 4.33904C2.4079 4.90398 0.843425 4.56993 0.378043 4.42746C-0.0873394 4.285 -0.0378308 3.62672 0.0809902 3.21407C1.24445 1.17045 4.49717 1.00342 5.96758 0.929734C14.092 0.723408 21.954 3.79375 27.1227 7.98415L27.1326 7.98906ZM12.4928 15.9375C10.4333 15.967 8.24994 16.1734 6.3389 16.8857C5.95273 17.0331 5.4725 17.4506 5.76955 17.9517C6.54684 18.9882 7.65583 19.843 8.69552 20.4423C9.7352 21.0417 11.1165 21.808 12.3691 21.9849C12.6661 20.0592 12.6661 18.158 12.6364 16.1733C12.5176 16.1144 12.6364 15.9965 12.4879 15.9375H12.4928ZM74.2451 13.2357C74.156 15.8147 71.735 17.4162 71.735 19.9953C71.8241 20.0837 71.8835 20.2016 72.0024 20.1427C73.9431 18.0352 75.8591 15.0435 78.696 14.1543C79.4435 14.0954 80.1218 14.7389 80.3991 15.2203C81.3843 17.1755 81.1466 19.9364 79.7703 21.7147C78.3494 23.4587 75.8839 25.2124 73.0767 24.9177C71.9133 27.762 71.1013 30.7587 70.6557 33.8732C70.4181 34.4971 69.8487 33.9322 69.4923 33.8143C67.0713 31.918 69.0616 26.8925 69.2249 26.2539C69.3883 25.6153 70.0369 24.1071 70.5122 22.8446C69.3784 20.8304 70.0913 18.3987 71.0172 16.532C71.735 15.2891 72.7202 14.0413 73.8837 13.0932C74.0322 13.0932 74.1511 13.1227 74.2402 13.2406L74.2451 13.2357ZM79.0574 16.4386C78.7009 16.3797 78.5474 16.8562 78.2504 16.9446C76.874 18.4872 75.5026 20.0297 74.8145 21.867C75.7403 21.9849 76.5176 21.3905 77.3246 21.0662C78.7009 20.2065 79.5673 18.7819 79.4733 17.1509C79.4138 16.8857 79.1762 16.6744 79.0524 16.4386H79.0574Z" fill="white"/>
</svg>
