<svg width="84" height="17" viewBox="0 0 84 17" fill="none" xmlns="http://www.w3.org/2000/svg">
<path d="M43.2464 8.20435C42.5512 8.20435 42.0546 8.42613 41.5481 8.6479V13.7294C42.0348 13.7776 42.3128 13.7776 42.7747 13.7776C44.4382 13.7776 44.6666 13.0352 44.6666 12.0083V9.57839C44.6666 8.81664 44.4084 8.20435 43.2514 8.20435M32.1878 7.92472C31.0307 7.92472 30.7676 8.54183 30.7676 9.29876V9.72784H33.603V9.29876C33.603 8.53701 33.3398 7.92472 32.1828 7.92472M10.7706 13.2184C10.7706 13.821 11.0636 14.1344 11.7092 14.1344C12.4044 14.1344 12.8115 13.9174 13.323 13.6909V12.4856H11.8035C11.0835 12.4856 10.7706 12.6157 10.7706 13.2232M54.0021 8.20435C52.8451 8.20435 52.4429 8.81664 52.4429 9.57839V12.3602C52.4429 13.1268 52.8451 13.7391 54.0021 13.7391C55.1591 13.7391 55.5614 13.1268 55.5614 12.3602V9.57839C55.5614 8.81664 55.1591 8.20435 54.0021 8.20435ZM5.0998 16.3329H1.69828V8.35381H0V5.60091H1.69828V3.95207C1.69828 1.71022 2.65667 0.374756 5.38285 0.374756H7.65216V3.12765H6.23198C5.16932 3.12765 5.0998 3.51334 5.0998 4.2317V5.61056H7.66706L7.36416 8.36345H5.09483V16.3425L5.0998 16.3329ZM16.7245 16.357H13.8891L13.765 15.6627C12.4689 16.357 11.3169 16.4727 10.5521 16.4727C8.47151 16.4727 7.36913 15.1276 7.36913 13.2666C7.36913 11.0681 8.66022 10.2871 10.9693 10.2871H13.318V9.81462C13.318 8.69129 13.184 8.36345 11.4062 8.36345H8.49634L8.77939 5.61056H11.9574C15.8605 5.61056 16.7146 6.80621 16.7146 9.83391V16.3618L16.7245 16.357ZM26.363 8.5563C24.6002 8.2622 24.0937 8.19953 23.2445 8.19953C21.72 8.19953 21.2582 8.52737 21.2582 9.78088V12.1577C21.2582 13.4112 21.72 13.7391 23.2445 13.7391C24.0937 13.7391 24.6002 13.6764 26.363 13.3775V16.0581C24.8186 16.3955 23.8106 16.4823 22.9615 16.4823C19.3117 16.4823 17.8567 14.6213 17.8567 11.9311V10.0027C17.8567 7.31243 19.3067 5.44664 22.9615 5.44664C23.8106 5.44664 24.8186 5.53824 26.363 5.8709V8.55148V8.5563ZM37.0045 11.9311H30.7676V12.1529C30.7676 13.4064 31.2294 13.7342 32.7539 13.7342C34.1244 13.7342 34.9586 13.6716 36.7215 13.3727V16.0532C35.0232 16.3907 34.1393 16.4775 32.4708 16.4775C28.821 16.4775 27.3661 14.6165 27.3661 11.9263V9.72302C27.3661 7.37029 28.4436 5.44181 32.1878 5.44181C35.9319 5.44181 37.0045 7.34618 37.0045 9.72302V11.9263V11.9311ZM48.0631 11.9842C48.0631 14.5828 47.2984 16.4823 42.6555 16.4823C40.982 16.4823 39.9939 16.3377 38.1466 16.0629V1.204L41.5481 0.654384V5.85162C42.2831 5.58645 43.2365 5.45146 44.1005 5.45146C47.502 5.45146 48.0681 6.93156 48.0681 9.30358V11.9842H48.0631ZM58.9629 12.0372C58.9629 14.279 58.0095 16.4534 54.0121 16.4534C50.0147 16.4534 49.0414 14.279 49.0414 12.0372V9.87248C49.0414 7.63063 50.0147 5.45146 54.0121 5.45146C58.0095 5.45146 58.9629 7.62581 58.9629 9.87248V12.0372ZM69.8527 12.0372C69.8527 14.279 68.8993 16.4534 64.9019 16.4534C60.9045 16.4534 59.9312 14.279 59.9312 12.0372V9.87248C59.9312 7.63063 60.9045 5.45146 64.9019 5.45146C68.8993 5.45146 69.8527 7.62581 69.8527 9.87248V12.0372ZM81.0305 16.3329H77.3459L74.2275 11.2899V16.3329H70.826V1.19918L74.2275 0.649563V10.3932L77.3459 5.60091H81.0305L77.629 10.8271L81.0305 16.3329ZM64.8919 8.20435C63.7349 8.20435 63.3377 8.81664 63.3377 9.57839V12.3602C63.3377 13.1268 63.7399 13.7391 64.8919 13.7391C66.044 13.7391 66.4512 13.1268 66.4512 12.3602V9.57839C66.4512 8.81664 66.044 8.20435 64.8919 8.20435ZM82.9721 14.4526C83.5432 14.4526 84 14.9058 84 15.4699C84 16.0339 83.5432 16.492 82.9671 16.492C82.3911 16.492 81.9293 16.0436 81.9293 15.4699C81.9293 14.8961 82.3961 14.4526 82.9671 14.4526H82.9721ZM82.9671 14.6117C82.5053 14.6117 82.1279 14.9974 82.1279 15.4699C82.1279 15.9423 82.5053 16.3329 82.9721 16.3329C83.4389 16.3329 83.8113 15.952 83.8113 15.4747C83.8113 14.9974 83.4389 14.6117 82.9721 14.6117H82.9671ZM82.7685 16.0629H82.5848V14.9251C82.6841 14.9106 82.7735 14.8961 82.9125 14.8961C83.0913 14.8961 83.2055 14.9299 83.275 14.9829C83.3445 15.0311 83.3793 15.1083 83.3793 15.2192C83.3793 15.3686 83.28 15.4602 83.1509 15.494V15.5036C83.2551 15.5229 83.3247 15.6097 83.3445 15.7784C83.3743 15.9568 83.3992 16.0243 83.419 16.0581H83.2253C83.1956 16.0243 83.1707 15.9182 83.1459 15.7688C83.1161 15.6241 83.0416 15.5711 82.8927 15.5711H82.7635V16.0581L82.7685 16.0629ZM82.7685 15.4361H82.9026C83.0565 15.4361 83.1856 15.3831 83.1856 15.2433C83.1856 15.142 83.1111 15.0456 82.9026 15.0456C82.843 15.0456 82.7983 15.0504 82.7685 15.0552V15.4409V15.4361Z" fill="white"/>
</svg>
