<svg width="87" height="38" viewBox="0 0 87 38" fill="none" xmlns="http://www.w3.org/2000/svg">
<path d="M43.6263 32.2819C43.6263 32.2819 43.6233 32.2834 43.6218 32.285H43.6202C43.0244 31.9165 28.2013 22.2581 12.7777 32.3082L5.43103 0.577393H81.8278L74.4826 32.3082C59.0591 22.2566 44.2359 31.9165 43.6416 32.285H43.6386C43.6386 32.285 43.6355 32.2834 43.634 32.2819H43.6263Z" fill="white"/>
<path d="M60.7604 16.6603C60.7604 17.3312 61.6067 20.0397 66.2602 20.0397C70.9136 20.0397 72.394 17.8375 72.394 16.3233C72.394 13.3424 68.6602 13.1962 66.2281 12.7761C65.2962 12.6145 64.6469 12.3759 64.6469 11.8927C64.6469 11.3018 65.3664 11.034 66.6467 11.034C67.1386 11.034 67.6473 11.1818 67.9941 11.3633C68.4616 11.608 68.6297 12.0374 68.6297 12.2605H72.0533C72.0533 11.5111 70.825 8.92725 66.1929 8.92725C63.2994 8.92725 60.574 10.2076 60.574 12.7222C60.574 15.4184 63.9273 15.8231 66.3197 16.1709C67.1982 16.2986 67.9956 16.4479 67.9956 17.1235C67.9956 17.679 67.2165 17.9099 66.2678 17.9099C65.8843 17.9099 65.4734 17.8791 65.1052 17.719C64.6576 17.5267 64.1275 17.0542 64.1275 16.6603H60.7588H60.7604Z" fill="black"/>
<path d="M15.5215 9.20581H20.0359V16.8742H25.5632V19.7412H15.5215V9.20581Z" fill="black"/>
<path d="M57.2742 9.17822H52.9202V19.7382H57.2742V9.17822Z" fill="black"/>
<path d="M60.5449 10.5017V8.28101H58.0883V10.3708H59.2891L58.6887 11.939H59.2341L60.5449 10.5017Z" fill="black"/>
<path d="M46.2331 15.811L46.143 15.6171L42.8828 9.19678H37.7573L43.4374 19.7583H47.2414L52.4403 9.19678H49.3619L46.3141 15.6171L46.2331 15.811Z" fill="black"/>
<path d="M39.0834 14.6488C39.0834 11.8434 36.8453 8.92871 32.3798 8.92871C28.3878 8.92871 25.6379 10.8508 25.6379 14.4965C25.6379 17.9083 28.4306 20.0627 32.3798 20.0627C35.4169 20.0627 37.6443 19.3071 38.7931 16.6479H35.2794C34.6912 17.4712 33.8601 17.7759 32.9466 17.7759C31.4112 17.7759 30.2578 16.7418 30.2578 15.3706H39.0681C39.1017 15.1167 39.0834 14.8828 39.0834 14.6488ZM30.2501 13.25C30.2654 12.182 30.9682 11.137 32.2942 11.137C33.7226 11.137 34.514 11.9896 34.514 13.25H30.2486H30.2501Z" fill="black"/>
<path d="M76.9879 0.577393H75.9857C76.0789 0.743595 76.1644 0.915953 76.2393 1.10062C76.4578 1.6454 76.5693 2.23326 76.5693 2.86268C76.5693 3.49209 76.4593 4.11073 76.2393 4.66166C76.0193 5.21106 75.7153 5.68812 75.3288 6.09285C74.9407 6.49759 74.487 6.8146 73.963 7.0439C73.4405 7.27474 72.8768 7.38862 72.2688 7.38862C71.6607 7.38862 71.0817 7.27474 70.5546 7.0439C70.0276 6.81306 69.5693 6.49605 69.1828 6.09285C68.7962 5.68966 68.4922 5.21106 68.2738 4.66166C68.0553 4.11073 67.9453 3.5121 67.9453 2.86268C67.9453 2.21326 68.0553 1.6454 68.2738 1.10062C68.3471 0.917492 68.4326 0.743595 68.5258 0.577393H67.5252C67.4885 0.649721 67.4457 0.714356 67.4137 0.789762C67.1341 1.42995 66.9935 2.12092 66.9935 2.86268C66.9935 3.60443 67.1341 4.32772 67.4137 4.97253C67.6932 5.61425 68.0736 6.17442 68.5533 6.6484C69.0346 7.12239 69.5952 7.49326 70.2338 7.75488C70.8724 8.01803 71.5507 8.15038 72.2688 8.15038C72.9868 8.15038 73.6651 8.01803 74.3006 7.75488C74.9346 7.49172 75.4907 7.12239 75.9658 6.6484C76.4425 6.17288 76.8198 5.61425 77.0994 4.97253C77.379 4.32772 77.5195 3.62598 77.5195 2.86268C77.5195 2.09938 77.379 1.42995 77.0994 0.789762C77.0673 0.715895 77.023 0.649721 76.9879 0.577393Z" fill="black"/>
<path d="M74.2717 2.78419C74.5803 2.52719 74.7346 2.11938 74.7346 1.56537C74.7346 1.16526 74.6475 0.840546 74.4886 0.577393H70.2278V5.96512H71.1796V3.31358H72.1879L73.8531 5.96512H74.8766L73.1259 3.24279C73.5842 3.19508 73.9661 3.04273 74.2732 2.78419H74.2717ZM72.171 2.53797H71.178V0.578931H72.4384C72.5973 0.578931 72.7577 0.589704 72.9212 0.614326C73.0846 0.635871 73.2298 0.682039 73.355 0.746673C73.4818 0.812846 73.5842 0.90672 73.6636 1.02829C73.7415 1.15141 73.7828 1.31607 73.7828 1.52228C73.7828 1.76543 73.7385 1.95626 73.6499 2.09322C73.5613 2.23018 73.4421 2.33175 73.2939 2.39639C73.1442 2.46256 72.9746 2.50257 72.7821 2.51642C72.5912 2.53027 72.388 2.53643 72.1741 2.53643L72.171 2.53797Z" fill="black"/>
</svg>
