<svg width="55" height="34" viewBox="0 0 55 34" fill="none" xmlns="http://www.w3.org/2000/svg">
<path fill-rule="evenodd" clip-rule="evenodd" d="M16.3453 0.919922C7.30671 0.919922 0 8.14878 0 17.047C0 25.9452 7.30671 33.1543 16.3453 33.1543C25.3838 33.1543 32.6706 25.9452 32.6706 17.047C32.6706 8.14878 25.3639 0.919922 16.3453 0.919922ZM10.3362 9.2075C11.4043 9.2075 12.2927 10.0791 12.2927 11.1378C12.2927 12.1965 11.4093 13.0878 10.3362 13.0878C9.24319 13.0878 8.3598 12.2162 8.3598 11.1378C8.3598 10.084 9.24319 9.2075 10.3362 9.2075ZM18.0372 24.8027H15.7314V9.61129H17.2536V23.2811H20.343V24.8027H18.0372ZM18.0372 29.6187C23.8217 28.8653 28.3934 24.2955 29.0921 18.5686H20.343V16.983H30.4896C30.4896 24.1133 25.0545 30.0619 18.0372 30.9187C17.4832 30.9778 16.9043 30.9975 16.3503 30.9975C14.1892 30.9975 12.1529 30.5297 10.3412 29.6975C5.52495 27.4618 2.17106 22.6311 2.17106 17.042C2.17106 11.453 5.52495 6.62225 10.3412 4.38662C12.0681 3.59381 14.0045 3.126 16.0458 3.06691V4.36692C14.0544 4.40632 12.103 4.9086 10.3412 5.82944C6.26361 7.96166 3.48367 12.1867 3.48367 17.042C3.48367 21.8974 6.26361 26.1224 10.3412 28.2547C12.1329 29.1903 14.1692 29.7172 16.3503 29.7172C16.9043 29.7172 17.4832 29.6778 18.0372 29.6138V29.6187ZM34.7618 23.0792V12.0291H38.4451V20.4989H43.4909V23.0792H34.7618ZM55 23.1186H52.6143L52.4896 22.0205C51.8707 22.7296 50.8625 23.3796 49.0907 23.3796C46.2309 23.3796 43.6556 21.5527 43.6556 17.6921C43.6556 14.1564 45.9015 11.7435 49.5449 11.7435C52.24 11.7435 54.4011 13.1223 54.8553 15.8454H51.3566C51.0871 14.9295 50.4283 14.442 49.4651 14.442C48.0227 14.442 47.3439 15.742 47.3439 17.6724C47.3439 19.2383 47.838 20.6811 49.6896 20.6811C50.4333 20.6811 51.3965 20.1739 51.5812 19.4008H49.9542V17.0224H55V23.1137V23.1186Z" fill="white"/>
</svg>
