<svg width="104" height="23" viewBox="0 0 104 23" fill="none" xmlns="http://www.w3.org/2000/svg">
<path d="M103.66 10.6104V8.78778H101.394V5.95701L101.32 5.98184L99.1931 6.63242L99.1533 6.64732V8.79275H95.7995V7.59588C95.7995 7.03965 95.9237 6.61255 96.1672 6.32948C96.4107 6.0464 96.7585 5.90735 97.2056 5.90735C97.5236 5.90735 97.8565 5.98184 98.1894 6.13083L98.2739 6.17056V4.25358L98.2341 4.23868C97.9211 4.12942 97.4988 4.06982 96.9771 4.06982C96.3163 4.06982 95.7151 4.21385 95.1934 4.49692C94.6716 4.78 94.2593 5.18723 93.9711 5.70869C93.6829 6.22519 93.5388 6.82114 93.5388 7.48165V8.79771H91.9638V10.6203H93.5388V18.2982H95.7995V10.6203H99.1533V15.4972C99.1533 17.5086 100.102 18.5266 101.971 18.5266C102.279 18.5266 102.602 18.4919 102.929 18.4223C103.267 18.3479 103.496 18.2783 103.63 18.1989L103.66 18.179V16.3415L103.565 16.4011C103.441 16.4805 103.287 16.5501 103.108 16.5997C102.929 16.6494 102.775 16.6742 102.661 16.6742C102.224 16.6742 101.901 16.555 101.697 16.3216C101.494 16.0882 101.389 15.676 101.389 15.0999V10.6154H103.655L103.66 10.6104ZM86.9057 16.6693C86.0859 16.6693 85.435 16.3961 84.9829 15.8598C84.5258 15.3184 84.2922 14.5536 84.2922 13.5753C84.2922 12.5969 84.5258 11.7775 84.9829 11.2312C85.44 10.6849 86.0809 10.4118 86.8908 10.4118C87.7007 10.4118 88.3019 10.675 88.7491 11.1964C89.1963 11.7228 89.4248 12.5026 89.4248 13.5206C89.4248 14.5387 89.2112 15.3433 88.7888 15.8747C88.3665 16.4011 87.7355 16.6693 86.9107 16.6693M87.0051 8.55933C85.44 8.55933 84.1929 9.01623 83.3085 9.92506C82.4241 10.8289 81.9719 12.0854 81.9719 13.6498C81.9719 15.2141 82.4091 16.3315 83.2787 17.2056C84.1432 18.0797 85.3207 18.5167 86.7815 18.5167C88.2423 18.5167 89.5192 18.0499 90.4086 17.1361C91.298 16.2173 91.7451 14.9807 91.7451 13.4511C91.7451 11.9215 91.3228 10.7346 90.4931 9.87043C89.6583 9.0063 88.4907 8.5643 87.015 8.5643M78.32 8.55933C77.2517 8.55933 76.3723 8.83248 75.6966 9.36884C75.0208 9.91016 74.673 10.6203 74.673 11.4745C74.673 11.9215 74.7476 12.3188 74.8917 12.6515C75.0407 12.9892 75.2643 13.2872 75.5674 13.5355C75.8655 13.7839 76.3276 14.0421 76.9437 14.3053C77.4604 14.5189 77.843 14.6976 78.0865 14.8367C78.325 14.9758 78.4939 15.1148 78.5883 15.2489C78.6827 15.383 78.7274 15.5618 78.7274 15.7853C78.7274 16.4209 78.2504 16.7338 77.2666 16.7338C76.9039 16.7338 76.4866 16.6593 76.0295 16.5054C75.5773 16.3564 75.15 16.1428 74.7625 15.8647L74.6681 15.7952V17.9704L74.7029 17.9853C75.0208 18.1343 75.4283 18.2585 75.9003 18.3578C76.3773 18.4571 76.8046 18.5068 77.1822 18.5068C78.3399 18.5068 79.269 18.2336 79.9497 17.6923C80.6354 17.146 80.9782 16.4209 80.9782 15.5369C80.9782 14.8963 80.7894 14.35 80.4217 13.903C80.054 13.466 79.423 13.0588 78.5386 12.7062C77.8331 12.4231 77.3809 12.1897 77.1971 12.0109C77.0182 11.8371 76.9288 11.5888 76.9288 11.2809C76.9288 11.0027 77.0431 10.7842 77.2716 10.6054C77.5051 10.4267 77.8281 10.3323 78.2355 10.3323C78.6131 10.3323 79.0007 10.3919 79.3833 10.5061C79.7659 10.6203 80.1037 10.7793 80.382 10.968L80.4764 11.0325V8.96657L80.4416 8.95167C80.1832 8.84241 79.8404 8.74309 79.423 8.66859C79.0106 8.5941 78.633 8.55437 78.3101 8.55437M68.7753 16.6693C67.9555 16.6693 67.3046 16.3961 66.8525 15.8598C66.3954 15.3184 66.1618 14.5536 66.1618 13.5753C66.1618 12.5969 66.3954 11.7775 66.8525 11.2312C67.3096 10.6849 67.9505 10.4118 68.7604 10.4118C69.5703 10.4118 70.1715 10.675 70.6187 11.1964C71.0708 11.7228 71.2944 12.5026 71.2944 13.5206C71.2944 14.5387 71.0807 15.3433 70.6584 15.8747C70.2361 16.4011 69.6051 16.6693 68.7803 16.6693M68.8797 8.55933C67.3145 8.55933 66.0674 9.01623 65.183 9.92506C64.2986 10.8289 63.8465 12.0854 63.8465 13.6498C63.8465 15.2141 64.2837 16.3315 65.1532 17.2056C66.0177 18.0797 67.1953 18.5167 68.6561 18.5167C70.1168 18.5167 71.3938 18.0499 72.2831 17.1361C73.1676 16.2173 73.6197 14.9807 73.6197 13.4511C73.6197 11.9215 73.1974 10.7346 72.3676 9.87043C71.5329 9.0063 70.3653 8.5643 68.8896 8.5643M60.4082 10.4366V8.79275H58.1723V18.2932H60.4082V13.4362C60.4082 12.6118 60.597 11.9314 60.9647 11.4199C61.3274 10.9133 61.8143 10.6551 62.4105 10.6551C62.6143 10.6551 62.8378 10.6899 63.0813 10.7544C63.3248 10.819 63.4987 10.8885 63.603 10.963L63.6974 11.0325V8.77785L63.6626 8.76295C63.4539 8.67356 63.1608 8.62886 62.7882 8.62886C62.2267 8.62886 61.7249 8.80765 61.2926 9.16522C60.915 9.47809 60.6417 9.90519 60.433 10.4416H60.4082V10.4366ZM54.1676 8.55933C53.1441 8.55933 52.2249 8.77785 51.4498 9.21488C50.6697 9.64695 50.0685 10.2677 49.6561 11.0574C49.2487 11.842 49.04 12.7608 49.04 13.7888C49.04 14.6877 49.2388 15.5121 49.6363 16.2372C50.0338 16.9623 50.5952 17.5334 51.3107 17.9257C52.0212 18.3181 52.846 18.5217 53.7552 18.5217C54.8185 18.5217 55.7228 18.3081 56.4532 17.891L56.483 17.8761V15.83L56.3886 15.8995C56.0607 16.1379 55.693 16.3315 55.2955 16.4706C54.898 16.6097 54.5403 16.6792 54.2223 16.6792C53.3428 16.6792 52.6423 16.406 52.1305 15.8647C51.6187 15.3234 51.3604 14.5636 51.3604 13.6051C51.3604 12.6466 51.6336 11.8619 52.1653 11.2858C52.6969 10.7097 53.4025 10.4217 54.262 10.4217C54.9974 10.4217 55.7129 10.67 56.3886 11.1617L56.483 11.2312V9.07583L56.4532 9.06093C56.1998 8.9169 55.852 8.80268 55.4197 8.71329C54.9874 8.6239 54.5701 8.5792 54.1726 8.5792M47.5047 8.78778H45.2689V18.2883H47.5047V8.78778ZM46.4067 4.74524C46.039 4.74524 45.716 4.86939 45.4527 5.11771C45.1894 5.36602 45.0552 5.6789 45.0552 6.05137C45.0552 6.42384 45.1894 6.72181 45.4477 6.96516C45.7061 7.20851 46.0291 7.3277 46.4067 7.3277C46.7843 7.3277 47.1023 7.20354 47.3656 6.96516C47.629 6.72181 47.7631 6.4139 47.7631 6.05137C47.7631 5.68883 47.6339 5.38589 47.3756 5.12764C47.1172 4.87436 46.7893 4.74524 46.4017 4.74524M40.8319 8.08754V18.2883H43.1125V5.03328H39.9574L35.9428 14.8764L32.0474 5.03328H28.7632V18.2883H30.9047V8.08754H30.9792L35.0932 18.2883H36.7129L40.7624 8.08754H40.8369H40.8319Z" fill="white"/>
<path d="M10.5136 11.1169H0V0.603271H10.5136V11.1119V11.1169Z" fill="white"/>
<path d="M22.1253 11.1169H11.6117V0.603271H22.1253V11.1119V11.1169Z" fill="white"/>
<path d="M10.5136 22.7284H0V12.2197H10.5136V22.7284Z" fill="white"/>
<path d="M22.1251 22.7284H11.6116V12.2197H22.1251V22.7284Z" fill="white"/>
</svg>
