<svg width="103" height="32" viewBox="0 0 103 32" fill="none" xmlns="http://www.w3.org/2000/svg">
<path d="M59.2705 1.03666V15.0962C59.2655 15.4289 59.5288 15.7021 59.8617 15.707C59.8667 15.707 59.8766 15.707 59.8816 15.707H61.556C61.8889 15.712 62.1572 15.4488 62.1672 15.121C62.1672 15.1111 62.1672 15.1061 62.1672 15.0962V1.03666C62.1771 0.708886 61.9187 0.435742 61.5858 0.425809C61.5759 0.425809 61.566 0.425809 61.556 0.425809H59.8816C59.5487 0.415877 59.2754 0.679089 59.2705 1.01183C59.2705 1.02176 59.2705 1.03169 59.2705 1.03666Z" fill="white"/>
<path d="M88.2573 15.0959V8.89795C88.2573 6.1218 85.8326 4.42334 84.034 4.42334C82.2354 4.42334 80.7547 4.8852 79.597 5.82383C79.4927 5.90825 79.2045 5.99765 79.2045 5.74437V5.10372C79.2144 4.77595 78.9511 4.5028 78.6232 4.49287C78.6132 4.49287 78.6033 4.49287 78.5983 4.49287H77.1525C76.8196 4.48294 76.5463 4.74615 76.5413 5.07889C76.5413 5.08882 76.5413 5.09379 76.5413 5.10372V15.0959C76.5364 15.4286 76.7997 15.7017 77.1326 15.7067C77.1425 15.7067 77.1475 15.7067 77.1574 15.7067H78.6033C78.9312 15.7117 79.1995 15.4534 79.2095 15.1257C79.2095 15.1157 79.2095 15.1058 79.2095 15.0959V10.214C79.2095 8.86815 80.1237 6.55884 83.1198 6.55884C85.2612 6.55884 85.604 8.03382 85.604 8.89795V15.0959C85.5941 15.4236 85.8575 15.6968 86.1854 15.7067C86.1953 15.7067 86.2053 15.7067 86.2152 15.7067H87.6611C87.989 15.7166 88.2622 15.4534 88.2722 15.1257C88.2722 15.1157 88.2722 15.1058 88.2722 15.0959H88.2672H88.2573Z" fill="white"/>
<path d="M99.367 14.7535C99.5459 14.6144 99.7298 14.7287 99.7248 15.0515C99.7 15.3892 99.9533 15.6822 100.291 15.707C100.306 15.707 100.321 15.707 100.341 15.707H101.787C102.115 15.712 102.388 15.4537 102.393 15.121C102.393 15.1111 102.393 15.1011 102.393 15.0962V1.03666C102.403 0.708886 102.144 0.435742 101.822 0.425809C101.812 0.425809 101.802 0.425809 101.787 0.425809H100.341C100.008 0.415877 99.7347 0.679089 99.7248 1.01183C99.7248 1.02176 99.7248 1.02673 99.7248 1.03666V5.48147C99.7248 5.80428 99.5509 5.91354 99.372 5.77945C95.4369 2.76492 89.4497 5.77945 89.4646 10.2441C89.4646 15.2352 95.3773 17.927 99.367 14.7585V14.7535ZM95.8791 6.62372C97.9659 6.62372 99.6552 8.05897 99.6552 10.2839C99.6552 12.5087 97.9709 14.0582 95.8791 14.0582C93.7873 14.0582 92.1974 12.4194 92.1974 10.264C92.1874 8.26755 93.7972 6.63862 95.7946 6.62868C95.8195 6.62868 95.8493 6.62868 95.8741 6.62868L95.8791 6.62372Z" fill="white"/>
<path d="M38.7352 6.80247C38.7352 6.80247 41.1151 6.80247 41.1151 4.62725C41.1151 2.45202 38.7352 2.44705 38.7352 2.44705H33.3244C32.9915 2.44209 32.7232 2.7053 32.7133 3.03307C32.7133 3.04301 32.7133 3.04797 32.7133 3.05791V6.19162C32.7133 6.52933 32.9865 6.80247 33.3244 6.80744H38.7352V6.80247ZM32.7133 9.43956V15.0961C32.7232 15.4239 32.4598 15.6971 32.1319 15.707C32.122 15.707 32.112 15.707 32.1021 15.707H30.7308C30.4028 15.7169 30.1246 15.4637 30.1147 15.1359C30.1147 15.1259 30.1147 15.111 30.1147 15.1011V1.03663C30.1047 0.708859 30.3681 0.435714 30.696 0.425781C30.7059 0.425781 30.7208 0.425781 30.7308 0.425781H39.5997C41.607 0.425781 43.8926 1.8064 43.8926 4.62725C43.8479 6.0029 43.1473 7.2693 42.0045 8.03908C41.9151 8.09867 41.8505 8.21786 41.8902 8.24766C42.6455 8.84361 42.6554 9.32534 42.9187 10.3534C43.4007 12.2058 43.4603 13.8148 44.1857 15.3693C44.2205 15.5133 44.1261 15.6573 43.982 15.6921C43.9721 15.6921 43.9572 15.6921 43.9423 15.6971H42.1784C41.5971 15.6971 41.2791 15.4289 41.1698 15.0813C40.5388 13.1444 40.971 11.2672 39.6544 9.42467C39.3463 8.9926 38.6607 8.81381 37.8607 8.81381H33.3244C32.9915 8.80388 32.7182 9.06709 32.7133 9.39983C32.7133 9.40977 32.7133 9.41473 32.7133 9.42467V9.4346V9.43956ZM51.4051 14.0185C48.5581 14.0185 47.2513 11.9078 47.2513 10.2888C47.2513 8.66979 48.6177 6.53926 51.3654 6.53926C54.113 6.53926 55.4893 8.65986 55.4893 10.2789C55.4893 11.8979 54.1428 14.0234 51.4101 14.0234L51.4051 14.0185ZM51.4051 16.1093C56.2793 16.1093 58.3214 12.9507 58.3164 10.2739C58.3164 7.70634 56.2644 4.43356 51.3604 4.43356C46.4564 4.43356 44.4193 7.70137 44.4193 10.2689C44.4193 12.9954 46.4862 16.1043 51.4001 16.1043V16.1142L51.4051 16.1093ZM64.8998 15.2998C66.7879 16.6456 70.2907 16.3179 71.9105 14.9223C72.0347 14.818 72.2186 14.8329 72.3229 14.9571C72.3577 14.9968 72.3776 15.0415 72.3875 15.0961C72.5465 15.5878 72.7651 15.707 73.257 15.707H74.2557C74.5836 15.712 74.8569 15.4537 74.8619 15.121C74.8619 15.111 74.8619 15.1011 74.8619 15.0961V8.78402C74.8619 5.34736 71.6522 4.43356 69.2026 4.43356C66.45 4.43356 64.6514 5.48145 63.7769 7.60701C63.6875 7.82056 63.9459 8.07881 64.1645 8.07881H66.0525C66.3507 8.05398 66.619 7.89505 66.7929 7.65171C67.2798 6.8422 68.0698 6.52933 69.5504 6.52933C71.1851 6.52933 71.6174 6.89187 72.144 7.65171C72.3478 7.94968 72.2732 8.35692 71.9751 8.56053C71.9105 8.60523 71.841 8.63503 71.7664 8.65489C67.8214 8.85851 67.1556 8.99757 66.0774 9.17635C64.5222 9.4197 63.3347 10.9245 63.3446 12.4938C63.3446 13.5218 63.8266 14.5399 64.9197 15.3147H64.9048L64.8998 15.2998ZM66.6935 11.3416C68.0698 10.6116 71.4733 10.6861 71.7913 10.7258C71.9503 10.7457 72.1788 10.8649 72.1788 11.0884C72.1788 14.0284 68.1493 14.4257 66.609 13.4126C66.296 13.204 66.0973 12.8613 66.0675 12.4839C66.0178 12.0121 66.2662 11.5552 66.6935 11.3466V11.3416Z" fill="white"/>
<path d="M24.1722 7.13032H9.20184C7.16472 7.08562 5.47538 8.69966 5.43066 10.7408C5.43066 10.7756 5.43066 10.8054 5.43066 10.8401C5.45054 12.9111 7.12994 14.5797 9.20682 14.5897H27.5111V15.7021H9.18195C6.50388 15.7021 4.32765 13.5318 4.32765 10.8501C4.32765 8.16827 6.49891 5.99801 9.18195 5.99801H23.0245V4.49323H4.25808V15.6971H3.02588V3.37085H24.1772V7.14522V7.13032H24.1722Z" fill="white"/>
<path d="M8.05411 12.7622H27.5111V11.6448H9.20683V10.1301H23.0543C25.7026 10.1996 27.9086 8.10885 27.9782 5.46182C27.9782 5.40223 27.9782 5.33767 27.9782 5.27807C27.9782 2.60125 25.8069 0.426025 23.1288 0.426025C23.0791 0.426025 23.0344 0.426025 22.9847 0.426025H0V15.7023H1.2322V1.5484H23.0195C25.0964 1.5484 26.7907 3.22204 26.8106 5.29794C26.8106 7.33908 25.161 9.00278 23.1139 9.00278C23.0792 9.00278 23.0493 9.00278 23.0146 9.00278H8.04416V12.7573L8.05411 12.7622Z" fill="white"/>
<path d="M64.7707 29.6274V27.9538H61.7747V22.178H59.8518V29.6274H64.7707Z" fill="white"/>
<path d="M66.5792 23.7473C67.1258 23.7473 67.573 23.3103 67.573 22.764C67.573 22.2177 67.1357 21.7708 66.5892 21.7708C66.0426 21.7708 65.5955 22.2078 65.5955 22.7541C65.5955 23.3004 66.0327 23.7473 66.5792 23.7473ZM67.4388 29.6274V24.239H65.7197V29.6274H67.4388Z" fill="white"/>
<path d="M70.7877 29.6275V25.729H71.8808V24.2292H70.7877V23.961C70.7728 23.6481 71.0113 23.3849 71.3193 23.37C71.3392 23.37 71.3591 23.37 71.3789 23.37C71.5827 23.3551 71.7814 23.4296 71.9205 23.5835L72.5615 22.6002C72.1342 22.2228 71.5727 22.0291 71.0063 22.0589C69.9977 21.9993 69.1332 22.7691 69.0735 23.7772C69.0735 23.8319 69.0735 23.8915 69.0735 23.9461V24.2143H68.1792V25.7141H69.0735V29.6126L70.7927 29.6275H70.7877Z" fill="white"/>
<path d="M75.1898 29.7615C76.0195 29.7615 76.9089 29.5281 77.4505 29.0463L76.7251 27.9686C76.3375 28.2617 75.8655 28.4206 75.3786 28.4255C74.5985 28.4255 74.1265 27.9686 74.0321 27.4671H77.8778V27.0995C77.8778 25.267 76.7151 24.095 75.1152 24.095C73.575 24.0503 72.2931 25.2571 72.2434 26.7966C72.2434 26.8413 72.2434 26.881 72.2434 26.9257C72.2434 28.6838 73.5303 29.7664 75.1948 29.7664L75.1898 29.7615ZM76.2332 26.3546H74.0073C74.0818 25.8083 74.5637 25.406 75.1152 25.4259C75.6767 25.3812 76.1736 25.7934 76.2332 26.3546Z" fill="white"/>
<path d="M80.7943 29.7614C82.3495 29.7614 83.2538 29.0016 83.2538 27.9735C83.2538 25.7636 80.1136 26.3744 80.1136 25.7486C80.1136 25.5252 80.3819 25.3563 80.7943 25.3563C81.3756 25.3563 81.942 25.5649 82.3842 25.9473L83.0401 24.8051C82.3843 24.3333 81.5943 24.085 80.7844 24.0899C79.2839 24.0899 78.469 24.9193 78.469 25.8678C78.469 28.0232 81.6091 27.3428 81.6091 28.048C81.6091 28.2964 81.4005 28.4652 80.8837 28.4652C80.1931 28.4255 79.5273 28.1772 78.9857 27.7501L78.2703 28.937C78.8417 29.4386 79.8354 29.7664 80.7993 29.7664L80.7943 29.7614Z" fill="white"/>
<path d="M86.1804 29.7616C86.8163 29.7616 87.2436 29.6076 87.4573 29.404L87.1194 28.1078C86.9952 28.2021 86.8412 28.2518 86.6872 28.2419C86.4139 28.2419 86.2002 28.0184 86.2002 27.7453C86.2002 27.7304 86.2002 27.7155 86.2002 27.7006V25.7339H87.2983V24.2291H86.2002V22.7542H84.491V24.2291H83.5967V25.7289H84.491V28.1773C84.491 29.2153 85.0823 29.7665 86.1804 29.7665V29.7616Z" fill="white"/>
<path d="M88.0487 31.7283C88.2921 31.7829 88.5356 31.8127 88.784 31.8177C89.8125 31.7978 90.6323 31.5495 91.0696 30.3974L93.4942 24.2292H91.6708L90.4485 27.6361L89.2213 24.2292H87.4077L89.5641 29.7021L89.4399 29.9951C89.3505 30.2186 89.107 30.298 88.7145 30.298C88.5654 30.298 88.4213 30.2633 88.2921 30.1987L88.0487 31.7283Z" fill="white"/>
<path d="M95.7399 29.6274V22.178H94.0208V29.6274H95.7399Z" fill="white"/>
<path d="M99.5857 29.7615C100.415 29.7615 101.31 29.5281 101.846 29.0464L101.121 27.9687C100.733 28.2617 100.261 28.4206 99.7745 28.4256C98.9895 28.4256 98.5224 27.9687 98.428 27.4671H102.279V27.0996C102.279 25.267 101.116 24.095 99.5161 24.095C97.9759 24.0453 96.689 25.2571 96.6443 26.7917C96.6443 26.8364 96.6443 26.8761 96.6443 26.9208C96.6443 28.6788 97.9312 29.7615 99.5956 29.7615H99.5857ZM100.629 26.3546H98.4032C98.4727 25.8034 98.9547 25.4011 99.5062 25.4259C100.068 25.3812 100.565 25.7885 100.624 26.3546H100.629Z" fill="white"/>
</svg>
