<svg width="89" height="16" viewBox="0 0 89 16" fill="none" xmlns="http://www.w3.org/2000/svg">
<path d="M73.9278 9.87582C74.1812 8.82794 74.3303 7.91911 74.3303 7.03015C74.3303 3.4147 71.9106 0.544195 67.7817 0.544195C63.295 0.544195 59.7176 3.89146 59.022 8.26675C58.2817 12.9003 61.1287 15.9893 65.5259 15.9893C68.9989 15.9893 71.9255 14.0326 73.426 11.0628H68.1145C67.4537 11.758 66.5743 11.9418 65.7992 11.9219C64.2688 11.8921 63.5484 10.9883 63.5285 9.85595L73.9328 9.86589L73.9278 9.87582ZM67.4935 4.44768C68.8449 4.44768 69.7542 5.29692 69.7095 6.58815H64.2539C64.7905 5.32175 66.0128 4.44768 67.4935 4.44768ZM85.2065 0.608755C83.3781 0.608755 81.8577 2.1036 81.8577 3.93616C81.8577 5.76871 83.3731 7.30329 85.2065 7.30329C87.0399 7.30329 88.5752 5.78858 88.5554 3.93616C88.5802 2.10857 87.0598 0.608755 85.2065 0.608755ZM53.7006 0.529297C52.0163 0.529297 49.9742 1.54242 48.9854 2.87835L49.5519 0.906735H44.782L42.1834 15.6417H47.3011L48.7718 7.30329C49.0252 5.9177 50.0984 4.96418 51.3803 4.96418C52.6622 4.96418 53.2087 5.97233 52.9802 7.30329L51.5144 15.6417H56.6321L58.227 6.58815C58.8829 2.88828 57.0693 0.529297 53.7006 0.529297ZM0.839694 0.906735H14.3096L13.4748 5.64456H9.38569L7.62184 15.6417H2.50419L4.26804 5.64456H0L0.839694 0.906735ZM15.4971 0.906735H20.6147L19.1689 9.09611C18.9155 10.5065 19.5713 11.3508 20.8085 11.3508C22.0457 11.3508 23.0792 10.4668 23.3375 9.09611L24.7834 0.906735H29.901L28.5148 8.75841C27.6552 13.685 24.4555 15.9744 20.1576 15.9744C15.8598 15.9744 13.2513 13.5707 14.1108 8.73358L15.4971 0.901767V0.906735ZM28.634 15.6417H33.7517L36.3503 0.906735H31.2326L28.634 15.6417ZM39.7637 0.608755C37.9353 0.608755 36.4149 2.1036 36.4149 3.93616C36.4149 5.76871 37.9303 7.30329 39.7637 7.30329C41.5971 7.30329 43.1324 5.78858 43.1125 3.93616C43.1374 2.10857 41.617 0.608755 39.7637 0.608755ZM74.0669 15.6417H79.1846L81.7832 0.906735H76.6655L74.0669 15.6417Z" fill="white"/>
</svg>
