<svg width="104" height="33" viewBox="0 0 104 33" fill="none" xmlns="http://www.w3.org/2000/svg">
<path d="M101.181 26.357L95.1438 18.1676L89.1119 26.357H86.6276L93.8867 16.4642L87.2586 7.4703H89.7429L95.1438 14.8055L100.545 7.4703H103.029L96.4058 16.4642L103.665 26.362H101.181V26.357ZM54.1379 26.3521L46.8738 16.4592L53.5019 7.46533H51.0176L45.6167 14.8005L40.2209 7.46533H37.7415L44.3647 16.4592L37.1006 26.3521H39.5899L45.6217 18.1676L51.6586 26.3521H54.1429H54.1379Z" fill="white"/>
<path d="M67.9506 17.1745C67.5779 16.8567 67.1606 16.5885 66.7134 16.3849C68.1145 15.64 68.989 14.1848 68.984 12.6006C68.984 11.3938 68.5369 7.4605 62.8429 7.4605H55.1713V15.6052H52.6175C52.2846 16.0373 51.5343 17.0752 51.2461 17.5023H55.1713V26.3522H62.8478C67.0066 26.3522 69.5853 24.2465 69.5853 20.8396C69.5853 19.3547 69.0238 18.0883 67.9555 17.1745M57.288 9.43708H62.8429C64.3434 9.43708 66.8624 9.80955 66.8624 12.4367C66.8624 14.4232 65.3967 15.6052 62.8429 15.6052H57.288V9.43211V9.43708ZM62.8429 24.3856H57.288V17.5122H62.8429C64.9496 17.5122 67.4686 18.0933 67.4686 20.7999C67.4686 23.9187 64.5719 24.3856 62.8429 24.3856ZM79.5622 7.0334C74.2557 7.0334 70.5442 11.0908 70.5442 16.9014C70.5442 22.7119 74.2557 26.7743 79.5622 26.7743C84.8687 26.7743 88.5653 22.7219 88.5653 16.9014C88.5653 11.0809 84.8637 7.0334 79.5622 7.0334ZM79.5622 24.7779C75.5177 24.7779 72.6857 21.5399 72.6857 16.9014C72.6857 12.2629 75.5177 9.02984 79.5622 9.02984C83.6066 9.02984 86.4189 12.2679 86.4189 16.9014C86.4189 21.5349 83.6017 24.7779 79.5622 24.7779ZM4.7003 5.44916L4.6854 5.46406C1.68436 8.41899 -0.00495767 12.4566 1.09292e-05 16.668C1.09292e-05 20.1146 1.12787 23.4668 3.21965 26.2032C3.23953 26.228 3.27432 26.2429 3.30413 26.228C3.33394 26.2131 3.33394 26.1784 3.32401 26.1486C2.1216 22.4388 8.26278 13.4399 11.4327 9.67049C11.4427 9.65559 11.4576 9.6407 11.4576 9.6258C11.4576 9.60593 11.4427 9.58607 11.4278 9.57613C6.0915 4.26719 4.6705 5.48393 4.69037 5.46406M26.8056 5.44916L26.8205 5.46406C29.8216 8.41899 31.5109 12.4566 31.5059 16.668C31.5059 20.1146 30.378 23.4668 28.2863 26.2032C28.2664 26.228 28.2316 26.2429 28.2018 26.228C28.1769 26.2131 28.172 26.1784 28.1819 26.1486C29.3843 22.4388 23.2481 13.4349 20.0781 9.66056C20.0682 9.64566 20.0533 9.63076 20.0533 9.61586C20.0533 9.59103 20.0682 9.57613 20.0831 9.56124C25.4194 4.25229 26.8354 5.47399 26.8155 5.45909M15.7505 0.919922C18.9304 0.919922 21.5439 1.78902 23.9536 3.22427C23.9834 3.23917 23.9934 3.27393 23.9785 3.30373C23.9685 3.33353 23.9338 3.3385 23.904 3.32856C20.8532 2.66805 16.2175 5.30514 15.7803 5.56835C15.7703 5.57332 15.7604 5.58325 15.7455 5.58325C15.7306 5.58325 15.7206 5.57828 15.7107 5.56835C14.5481 4.90287 10.2651 2.65812 7.56718 3.34843C7.53737 3.3534 7.50259 3.34843 7.49265 3.31863C7.48272 3.28883 7.49266 3.25904 7.51751 3.23917C9.92728 1.78902 12.5755 0.919922 15.7455 0.919922M15.7505 13.5492C15.7505 13.5492 15.7902 13.5641 15.8002 13.574C20.5154 17.1547 28.5794 26.0145 26.1199 28.5175C23.253 31.0304 19.5663 32.416 15.7505 32.4111C11.9346 32.4111 8.24788 31.0304 5.381 28.5175C2.92154 26.0145 10.9906 17.1547 15.6958 13.574C15.7107 13.5641 15.7306 13.5492 15.7505 13.5492Z" fill="white"/>
</svg>
